<svg xmlns="http://www.w3.org/2000/svg" width="15.269" height="22.028" viewBox="0 0 15.269 22.028">
    <defs>
        <style>
            .cls-1{fill:#fff}
        </style>
    </defs>
    <g id="noun_account_1024934" transform="translate(-9 -1.476)">
        <g id="Group_7771" transform="translate(9 1.476)">
            <path id="Path_5899" d="M24.084 24.524H16.9a.9.9 0 0 0-.9.9V35.3a.9.9 0 0 0 .9.9h7.186a.9.9 0 0 0 .9-.9v-9.88a.9.9 0 0 0-.902-.896zm-5.519 9.75a.449.449 0 0 1-.638-.633.466.466 0 0 1 .638 0 .45.45 0 0 1 0 .633zm0-1.8a.449.449 0 0 1-.638-.633.47.47 0 0 1 .638 0 .455.455 0 0 1 .13.314.465.465 0 0 1-.131.323zm0-1.8a.449.449 0 0 1-.638-.633.47.47 0 0 1 .638 0 .455.455 0 0 1 .13.314.465.465 0 0 1-.131.327zm2.245 3.593a.445.445 0 0 1-.638 0 .464.464 0 0 1-.13-.319.454.454 0 0 1 .13-.314.47.47 0 0 1 .638 0 .455.455 0 0 1 .13.314.465.465 0 0 1-.13.326zm0-1.8a.445.445 0 0 1-.638 0 .464.464 0 0 1-.13-.319.454.454 0 0 1 .13-.314.47.47 0 0 1 .638 0 .45.45 0 0 1 0 .633zm0-1.8a.449.449 0 0 1-.638-.633.47.47 0 0 1 .638 0 .45.45 0 0 1 0 .633zm2.245 3.593a.445.445 0 0 1-.638 0 .464.464 0 0 1-.13-.319.454.454 0 0 1 .13-.314.47.47 0 0 1 .638 0 .455.455 0 0 1 .13.314.465.465 0 0 1-.13.333zm0-1.8a.445.445 0 0 1-.638 0 .464.464 0 0 1-.13-.319.454.454 0 0 1 .13-.314.47.47 0 0 1 .638 0 .455.455 0 0 1 .13.314.465.465 0 0 1-.13.337zm0-1.8a.449.449 0 0 1-.638-.633.47.47 0 0 1 .638 0 .45.45 0 0 1 0 .633zm.13-1.664H17.8v-2.673h5.389z" class="cls-1" transform="translate(-12.856 -14.173)"/>
            <path id="Path_5900" d="M20.677 6.44a1.349 1.349 0 0 1-1.347-1.347V1.476h-8.983A1.349 1.349 0 0 0 9 2.823V18.99a1.349 1.349 0 0 0 1.347 1.347h.9v-7.612a1.8 1.8 0 0 1 1.8-1.8h7.186a1.8 1.8 0 0 1 1.8 1.8v7.613h.9a1.349 1.349 0 0 0 1.347-1.347V6.44zm-.448 3.571l-7.186.022a.449.449 0 0 1 0-.9l7.186-.022a.449.449 0 0 1 0 .9zm0-2.245l-7.186.022a.449.449 0 0 1 0-.9l7.186-.022a.449.449 0 0 1 0 .9z" class="cls-1" transform="translate(-9 -1.476)"/>
            <path id="Path_5901" d="M34.449 5.555h3.174L34 1.5v3.606a.45.45 0 0 0 .449.449z" class="cls-1" transform="translate(-22.773 -1.489)"/>
        </g>
    </g>
</svg>
