<svg xmlns="http://www.w3.org/2000/svg" width="17.288" height="21.437" viewBox="0 0 17.288 21.437">
    <g>
        <g>
            <g>
                <path fill="#fd4233" d="M29.559 23.437h-13.83A1.731 1.731 0 0 1 14 21.708V3.729A1.731 1.731 0 0 1 15.729 2h7.034a1.717 1.717 0 0 1 1.222.506l6.8 6.8a1.717 1.717 0 0 1 .506 1.222v11.18a1.731 1.731 0 0 1-1.732 1.729zM15.729 2.692a1.038 1.038 0 0 0-1.037 1.037v17.979a1.038 1.038 0 0 0 1.037 1.037h13.83a1.038 1.038 0 0 0 1.041-1.037V10.525a1.045 1.045 0 0 0-.3-.733L23.5 3a1.03 1.03 0 0 0-.733-.3z" transform="translate(-14 -2)"/>
            </g>
        </g>
        <g>
            <g>
                <path fill="#ff402f" d="M43.5 47.8a.546.546 0 0 0-.159-.273 2.209 2.209 0 0 0-1.426-.337 11.783 11.783 0 0 0-1.715.126 4.273 4.273 0 0 1-.8-.55 5.808 5.808 0 0 1-1.437-2.228c.021-.081.038-.152.055-.225a14.5 14.5 0 0 0 .252-2.61.758.758 0 0 0-.045-.187l-.029-.076a.618.618 0 0 0-.564-.432L37.473 41a.637.637 0 0 0-.65.408 7.561 7.561 0 0 0 .4 3.4l-.1.242c-.278.681-.628 1.366-.935 1.969l-.04.078c-.325.634-.619 1.174-.887 1.63l-.275.145c-.021.01-.493.261-.6.327a3.374 3.374 0 0 0-1.665 1.7.418.418 0 0 0 .159.463l.266.135a.818.818 0 0 0 .363.086c.669 0 1.445-.833 2.515-2.7a25.022 25.022 0 0 1 3.874-.92 6.684 6.684 0 0 0 2.823.9 1.306 1.306 0 0 0 .332-.036.576.576 0 0 0 .33-.225 1.2 1.2 0 0 0 .117-.802zm-10.147 3.284a4.644 4.644 0 0 1 1.319-1.578c.045-.036.156-.14.256-.237a4.769 4.769 0 0 1-1.575 1.815zm4.229-9.738c.214 0 .337.541.347 1.049a2.157 2.157 0 0 1-.256 1.129 5.48 5.48 0 0 1-.182-1.409s-.008-.769.09-.769zm-1.262 6.939q.226-.4.465-.851a15.926 15.926 0 0 0 .816-1.781 5.89 5.89 0 0 0 1.347 1.672c.067.055.138.112.211.169a17.1 17.1 0 0 0-2.84.791zm6.817-.061a1 1 0 0 1-.375.064 4.4 4.4 0 0 1-1.556-.47c.261-.019.5-.029.716-.029a2.748 2.748 0 0 1 .894.1c.384.095.384.294.32.336z" transform="translate(3.232 6.742) translate(-32.697 -41)"/>
            </g>
        </g>
    </g>
</svg>
