<svg xmlns="http://www.w3.org/2000/svg" width="16.079" height="16.08" viewBox="0 0 16.079 16.08">
    <defs>
        <style>
            .cls-1{fill:#2e75bb}
        </style>
    </defs>
    <g id="Group_3112" transform="translate(-1747.999 -9247.09)">
        <rect id="Rectangle_1458" width="13.382" height="13.382" class="cls-1" rx="2" transform="translate(1747.999 9247.09)"/>
        <path id="Subtraction_8" d="M1.147 14.147A2.01 2.01 0 0 1 0 12.338V2a2 2 0 0 1 2-2h10.338a2.01 2.01 0 0 1 1.809 1.147 1.98 1.98 0 0 0-.853-.191H2.956a2 2 0 0 0-2 2v10.338a1.982 1.982 0 0 0 .19.851z" class="cls-1" transform="rotate(180 882.039 4631.585)"/>
    </g>
</svg>
