<svg xmlns="http://www.w3.org/2000/svg" width="19.564" height="21.499" viewBox="0 0 19.564 21.499">
    <g>
        <path fill="#fff" d="M23.883 20.193h-7.79a2.367 2.367 0 0 0-.329-.415l-1.252-1.248a5.361 5.361 0 0 0-1.268-5.519l-.02-.02a5.436 5.436 0 0 0-.483-.423v-1.68a4.225 4.225 0 0 1-.5-1.351c-.27-.086-.513-.522-.741-1.329-.219-.739-.219-1.217 0-1.463a.478.478 0 0 1 .333-.169 3.7 3.7 0 0 1-.11-.439 4 4 0 0 1 0-1.805 3.933 3.933 0 0 1 1.053-1.876 5.045 5.045 0 0 1 .974-.805 3.821 3.821 0 0 1 .95-.487A3.189 3.189 0 0 1 15.573 1a3.578 3.578 0 0 1 2.176.461 2.8 2.8 0 0 1 1.044.956 1.316 1.316 0 0 1 .779.509 4.146 4.146 0 0 1 .384 3.2 3.7 3.7 0 0 1-.112.439.478.478 0 0 1 .333.169c.2.246.2.724 0 1.463-.219.807-.472 1.244-.741 1.329a4.148 4.148 0 0 1-.5 1.336v1.755a.072.072 0 0 0 .042.066 29.475 29.475 0 0 1 5.306 3.409 1.878 1.878 0 0 1 .684 1.459v1.557a1.084 1.084 0 0 1-1.085 1.085zm-17.295-.546a4.045 4.045 0 1 1 5.712-5.724 4.045 4.045 0 0 1 .634 4.885l1.9 1.9a1.038 1.038 0 0 1-1.468 1.468l-1.891-1.886a4.019 4.019 0 0 1-4.887-.636zm.658-2.852a1.113 1.113 0 1 0 0-.009z" transform="translate(-5.402 -.976)"/>
    </g>
</svg>
