<svg xmlns="http://www.w3.org/2000/svg" width="15.883" height="15.883" viewBox="0 0 15.883 15.883">
    <g>
        <g>
            <g>
                <path fill="#fff" d="M24.883 10.433A1.267 1.267 0 0 0 23.45 9H10.424A1.263 1.263 0 0 0 9 10.433V23.45a1.263 1.263 0 0 0 1.424 1.433H23.45a1.267 1.267 0 0 0 1.433-1.433V10.433m-5.5.862a.719.719 0 0 1 .533.242.871.871 0 0 1 .194.7l-.242 2.14h1.627a.956.956 0 0 1 .475.329.764.764 0 0 1 .155.339v.232a.764.764 0 0 1-.155.339.909.909 0 0 1-.533.291h-1.754l-.252 2.024h1.646a1.042 1.042 0 0 1 .484.329.765.765 0 0 1 .145.436.744.744 0 0 1-.165.465.9.9 0 0 1-.523.3h-1.771l-.3 2.489a1.035 1.035 0 0 1-.339.484.764.764 0 0 1-.436.155.694.694 0 0 1-.494-.2.9.9 0 0 1-.252-.61l.281-2.315h-2.286l-.329 2.489a1.035 1.035 0 0 1-.339.484.734.734 0 0 1-.436.155.661.661 0 0 1-.484-.2.926.926 0 0 1-.242-.61l.261-2.315h-1.317a.924.924 0 0 1-.581-.291.77.77 0 0 1-.184-.5.735.735 0 0 1 .194-.494.939.939 0 0 1 .62-.242h1.472l.232-2.024H13a1.374 1.374 0 0 1-.358-.116.782.782 0 0 1-.213-.165.747.747 0 0 1-.194-.5.672.672 0 0 1 .2-.494.7.7 0 0 1 .107-.087.917.917 0 0 1 .5-.165h1.424l.281-2.324a.987.987 0 0 1 .3-.562.731.731 0 0 1 1.017.068.912.912 0 0 1 .2.717l-.261 2.1H18.3l.31-2.353a.931.931 0 0 1 .3-.542.76.76 0 0 1 .475-.184m-1.259 4.61h-2.3l-.252 2.024h2.336l.213-2.024" transform="translate(-9 -9) translate(9 9) translate(-9 -9)"/>
            </g>
        </g>
    </g>
</svg>
