<svg xmlns="http://www.w3.org/2000/svg" width="15.663" height="17.083" viewBox="0 0 15.663 17.083">
    <path fill="#2e75bb" stroke="#2e75bc" d="M22.095 7.187h-5.066l2.856-1.975a.315.315 0 1 0-.358-.517l-3.512 2.429-3.333-2.133a.314.314 0 0 0-.339.53l2.6 1.666h-5A1.259 1.259 0 0 0 8.69 8.445v11.017a1.259 1.259 0 0 0 1.258 1.258h12.147a1.259 1.259 0 0 0 1.258-1.258V8.445a1.259 1.259 0 0 0-1.258-1.258zm.629 12.276a.63.63 0 0 1-.629.629H9.948a.63.63 0 0 1-.629-.629V8.445a.63.63 0 0 1 .629-.629h12.147a.63.63 0 0 1 .629.629z" transform="translate(-8.19 -4.137)"/>
</svg>
