<svg xmlns="http://www.w3.org/2000/svg" width="16.846" height="16.08" viewBox="0 0 16.846 16.08">
    <path fill="#2e75bb" d="M137.4 139.116a1.076 1.076 0 0 0-1.065-1.016h-14.722a1.073 1.073 0 0 0-1.057 1.067v13.938a1.1 1.1 0 0 0 .006.121 1.053 1.053 0 0 0 .032.168c.006.024.013.045.022.069s.026.069.041.1l.013.03c.017.032.034.065.054.095l.011.017.032.047.022.028c.019.026.041.049.062.073l.006.006.006.006.017.017.019.017.019.017.019.017a.185.185 0 0 0 .022.017.438.438 0 0 0 .039.028l.039.026a.161.161 0 0 0 .026.015.087.087 0 0 0 .019.011l.022.013a.1.1 0 0 0 .022.011l.028.013.056.026a.237.237 0 0 0 .028.011.19.19 0 0 0 .032.011h.009l.024.006h.024a.03.03 0 0 1 .013 0h.024l.024.006H121.416a.892.892 0 0 0 .105.015.016.016 0 0 1 .011 0h.013a.047.047 0 0 1 .017 0h.006a.089.089 0 0 1 .024 0H136.273a1.43 1.43 0 0 0 .215-.015h.013a1.074 1.074 0 0 0 .8-.628.1.1 0 0 0 .009-.024 1.211 1.211 0 0 0 .08-.439v-13.89c.01-.002.01-.015.01-.03zm-13.142 2.35a1.448 1.448 0 0 1 2.567.917 1.448 1.448 0 1 1-2.567-.921zm12.09 11.662v.009c0 .017-.009.028-.011.017 0 0-.006 0-.006-.009 0 .017-.015.022-.011 0s0 0 0-.009v-.006h-.006l-.019.009a.029.029 0 0 1 .009-.006c-.011 0-.013 0 .015-.013H121.63a.029.029 0 0 0 .009.006l.028.006h-.022c.024.009.022.011.011.011h-.022l.006.006.009.009c.011.011.006.006-.017-.013v.03a.023.023 0 0 0 0-.011.2.2 0 0 1-.019-.022c-.024 0-.041-.011-.017-.013h-.013a.024.024 0 0 1 .017 0c-.019-.009-.022-.011-.006-.006-.011-.006-.009-.011 0-.011h.009l.013.006a.224.224 0 0 1-.011-.026.091.091 0 0 1 .015.026c-.009-.03-.015-.052 0 0a.008.008 0 0 0 0 .006v-2.623q1-1 2.01-1.991l.6.6 1.569 1.558c.121.118.239.239.359.357a.548.548 0 0 0 .762 0l.719-.717q.865-.859 1.728-1.719l2.092-2.081 1.808-1.8c.17-.168.344-.336.514-.5l.656.648 1.651 1.633.224.222v6.4a.13.13 0 0 1 .011-.026c0 .009-.006.022-.009.032a.008.008 0 0 1 0-.006c.011-.03.013-.03.013-.017v-.006.011c.009-.013.011-.011.011 0a.03.03 0 0 1 0 .013.008.008 0 0 1 .006 0h.006c.013 0 .015 0 0 0 .037.007.02.011-.002.016z" transform="translate(-120.556 -138.1)"/>
</svg>
