<svg xmlns="http://www.w3.org/2000/svg" width="16" height="15.272" viewBox="0 0 16 15.272">
    <g>
        <path fill="#414141" d="M136.554 139.065a1.022 1.022 0 0 0-1.012-.965H121.56a1.019 1.019 0 0 0-1 1.014v13.238a1.049 1.049 0 0 0 .006.114 1 1 0 0 0 .031.159c.006.022.012.043.02.065l.039.1.012.029c.016.031.033.061.051.09l.01.016c.01.016.02.031.031.045l.02.027c.018.025.039.047.059.069l.006.006.006.006.016.016.018.016.018.016.018.016a.177.177 0 0 0 .02.016.415.415 0 0 0 .037.027l.037.025a.153.153 0 0 0 .025.014.083.083 0 0 0 .018.01l.02.012a.1.1 0 0 0 .02.01l.027.012.053.025a.227.227 0 0 0 .027.01.18.18 0 0 0 .031.01h.008l.022.006h.022a.029.029 0 0 1 .012 0h.022l.022.006H121.37a.847.847 0 0 0 .1.014.015.015 0 0 1 .01 0h.012a.045.045 0 0 1 .016 0h.006a.084.084 0 0 1 .022 0h13.942a1.357 1.357 0 0 0 .2-.014h.012a1.02 1.02 0 0 0 .764-.6.1.1 0 0 0 .008-.022 1.15 1.15 0 0 0 .076-.417v-13.193c.018-.002.018-.014.016-.028zm-12.482 2.235a1.376 1.376 0 0 1 2.438.871 1.376 1.376 0 1 1-2.438-.875zm11.483 11.076v.008c0 .016-.008.027-.01.016s-.006 0-.006-.008c0 .016-.014.02-.01 0s0 0 0-.008v-.006h-.006l-.018.008a.028.028 0 0 1 .008-.006c-.01 0-.012 0 .014-.012h-13.953a.028.028 0 0 0 .008.006l.027.006h-.02c.022.008.02.01.01.01h-.02l.006.006.008.008c.01.01.006.006-.016-.012v.028a.022.022 0 0 0 0-.01.184.184 0 0 1-.018-.02c-.022 0-.039-.01-.016-.012h-.012a.023.023 0 0 1 .016 0c-.018-.008-.02-.01-.006-.006-.01-.006-.008-.01 0-.01h.008l.012.006a.213.213 0 0 1-.01-.025.086.086 0 0 1 .014.025c-.008-.029-.014-.049 0 0a.007.007 0 0 0 0 .006v-2.492q.953-.947 1.909-1.891l.574.57 1.49 1.48.341.339a.52.52 0 0 0 .724 0l.683-.681q.822-.816 1.641-1.633l1.987-1.976 1.717-1.709.488-.478c.206.2.415.411.623.615l1.568 1.551c.072.069.141.141.213.211v6.083a.125.125 0 0 1 .01-.025c0 .008-.006.02-.008.031a.007.007 0 0 1 0-.006c.01-.029.012-.029.012-.016v-.006.01c.008-.012.01-.01.01 0a.029.029 0 0 1 0 .012.008.008 0 0 1 .006 0h.006c.012 0 .014 0 0 0 .033.002.016.006-.004.01z" transform="translate(-156.556 42.778) translate(36 -180.878)"/>
    </g>
</svg>
