<svg xmlns="http://www.w3.org/2000/svg" width="18.248" height="19.269" viewBox="0 0 18.248 19.269">
    <defs>
        <style>
            .cls-1{fill:#fff}
        </style>
    </defs>
    <g id="noun_photo_tag_3215052" transform="translate(-3 -6.131)">
        <g id="Group_7769" transform="translate(3 6.131)">
            <path id="Path_5895" d="M19.945 24.129a1.083 1.083 0 1 0 1.083 1.083 1.085 1.085 0 0 0-1.083-1.083z" class="cls-1" transform="translate(-13.865 -18.46)"/>
            <path id="Path_5896" d="M18.589 25.563a1.709 1.709 0 1 1 1.707-1.71 1.71 1.71 0 0 1-1.707 1.71z" class="cls-1" transform="translate(-12.509 -17.102)"/>
            <path id="Path_5897" d="M18.164 19.138v7.489L13.9 20.766a.315.315 0 0 0-.535 0l-3.48 5.6-1.977-3.181a.315.315 0 0 0-.535 0l-2.807 3.5v-10.6a.313.313 0 0 1 .312-.312h7.876l1.563-1.563H4.56A1.561 1.561 0 0 0 3 15.769v13.6a1.561 1.561 0 0 0 1.56 1.56h13.607a1.561 1.561 0 0 0 1.56-1.56v-11.8z" class="cls-1" transform="translate(-3 -11.665)"/>
            <path id="Path_5898" d="M41.552 6.288a1.8 1.8 0 0 0-.423-.111l-1.317-.045a.738.738 0 0 0-.559.215l-4.341 4.341a.742.742 0 0 0 0 1.036l2.459 2.459a.735.735 0 0 0 1.039 0l4.341-4.341a.752.752 0 0 0 .212-.559l-.08-1.463a.769.769 0 0 0-.212-.477l-.646-.643c.337-.443-1.354-.647-.473-.412zm-.2 2.656a.845.845 0 1 1-1.2-1.193c.89-.449 1.109.226 1.213.019a.843.843 0 0 1-.017 1.174z" class="cls-1" transform="translate(-24.717 -6.131)"/>
        </g>
    </g>
</svg>
