<svg xmlns="http://www.w3.org/2000/svg" id="Group" width="24" height="24" viewBox="0 0 24 24">
    <defs>
        <style>
            .cls-2{fill:#2e75bc}
        </style>
    </defs>
    <path id="Path" fill="#fff" d="M12 0A12 12 0 1 1 0 12 12 12 0 0 1 12 0" opacity="0.87" transform="rotate(180 12 12)"/>
    <path id="Path-2" d="M1.2 9.04a1.2 1.2 0 0 0 1.2-1.2V1.2a1.2 1.2 0 0 0-2.4 0v6.64a1.209 1.209 0 0 0 1.2 1.2" class="cls-2" transform="rotate(180 6.6 9.28)"/>
    <path id="Path-3" d="M2.576 1.28a1.288 1.288 0 1 0-1.3 1.3 1.287 1.287 0 0 0 1.3-1.3" class="cls-2" transform="rotate(180 6.64 4.008)"/>
</svg>
