<svg xmlns="http://www.w3.org/2000/svg" width="362.5" height="380.659" viewBox="0 0 362.5 380.659">
    <defs>
        <clipPath id="clip-path">
            <circle id="Ellipse_333" cx="91.754" cy="91.754" r="91.754" fill="none" transform="matrix(.163 -.987 .987 .163 0 181.052)"/>
        </clipPath>
        <style>
            .cls-10,.cls-2,.cls-3{fill:#bee1f4}.cls-2,.cls-3{opacity:.5}.cls-11,.cls-12,.cls-13,.cls-14,.cls-15,.cls-16,.cls-17,.cls-23,.cls-3,.cls-4,.cls-5,.cls-6,.cls-7{fill-rule:evenodd}.cls-4{fill:#ef5355}.cls-5{fill:#facd34}.cls-6{fill:#624e9a}.cls-21,.cls-7{fill:#fff}.cls-13,.cls-8{fill:#56548c}.cls-23{fill:#878cf0}.cls-11{fill:#606bf1}.cls-12{fill:#112b46}.cls-14{fill:#ffc8af}.cls-15{fill:#fbd15b}.cls-16,.cls-24{fill:#ec827d}.cls-17{fill:#d16565}
        </style>
    </defs>
    <g id="Group_2118" transform="translate(-218.252 -136.554)">
        <ellipse id="Ellipse_328" cx="17.679" cy="30.622" class="cls-2" rx="17.679" ry="30.622" transform="rotate(-89.689 421.041 -49.745)"/>
        <ellipse id="Ellipse_329" cx="17.679" cy="30.622" class="cls-2" rx="17.679" ry="30.622" transform="rotate(-89.71 398.946 103.232)"/>
        <ellipse id="Ellipse_330" cx="22.624" cy="39.187" class="cls-2" rx="22.624" ry="39.187" transform="rotate(-89.689 466.104 43.891)"/>
        <ellipse id="Ellipse_331" cx="19.55" cy="33.863" class="cls-2" rx="19.55" ry="33.863" transform="rotate(-89.689 333.127 70.009)"/>
        <g id="Group_2157" transform="translate(218.252 136.554)">
            <path id="Path_2070" d="M338.076 215.921L293.4 190.13a7 7 0 0 1-3.5-6.065v-43.983a3.523 3.523 0 0 1 5.284-3.051l44.673 25.792a7 7 0 0 1 3.5 6.063v43.984a3.522 3.522 0 0 1-5.281 3.051z" class="cls-3" transform="translate(-174.482 -136.554)"/>
            <path id="Path_2071" d="M290.38 194.377l-20.7-11.951a3.246 3.246 0 0 1-1.622-2.809v-20.382a1.632 1.632 0 0 1 2.449-1.414l20.7 11.951a3.246 3.246 0 0 1 1.622 2.809v20.382a1.633 1.633 0 0 1-2.449 1.414z" class="cls-3" transform="translate(-187.827 -123.697)"/>
            <path id="Path_2072" d="M428.486 282l-32.326-18.664a5.067 5.067 0 0 1-2.534-4.39v-31.831a2.549 2.549 0 0 1 3.824-2.207l32.327 18.664a5.066 5.066 0 0 1 2.532 4.388v31.828a2.55 2.55 0 0 1-3.823 2.212z" class="cls-3" transform="translate(-111.119 -82.791)"/>
            <path id="Path_2073" d="M393.1 228.7l43.611-25.178a6.838 6.838 0 0 0 3.418-5.92v-42.94a3.44 3.44 0 0 0-5.16-2.979l-43.611 25.18a6.835 6.835 0 0 0-3.418 5.918v42.94a3.44 3.44 0 0 0 5.16 2.979z" class="cls-3" transform="translate(-114.592 -127.593)"/>
            <g id="Group_2120" transform="translate(0 123.824)">
                <path id="Path_2074" d="M225.644 324.437l62.486-36.076a9.8 9.8 0 0 0 4.9-8.483v-61.523a4.928 4.928 0 0 0-7.392-4.267l-62.486 36.076a9.8 9.8 0 0 0-4.9 8.483v61.523a4.928 4.928 0 0 0 7.392 4.267z" class="cls-3" transform="translate(-218.252 -213.421)"/>
                <g id="Group_2118-2" transform="translate(11.157 41.789)">
                    <path id="Path_2075" d="M243.933 269a25.106 25.106 0 0 1-3.352 2.331c-5.728 3.306-10.769 2.861-13.707-.538l13.707-18.317z" class="cls-4" transform="translate(-224.142 -231.354)"/>
                    <path id="Path_2076" d="M251.814 251c0 9.09-5.614 19.92-13.079 26.009l-3.352-16.524v-18.867c9.072-5.238 16.431-1.043 16.431 9.382z" class="cls-5" transform="translate(-218.944 -239.363)"/>
                    <path id="Path_2077" d="M241.617 240.763v18.862l-13.707 18.317c-1.73-1.988-2.732-4.986-2.732-8.826 0-10.416 7.358-23.11 16.439-28.353z" class="cls-6" transform="translate(-225.178 -238.507)"/>
                </g>
                <g id="Group_2119" transform="translate(48.299 27.23)">
                    <path id="Path_2078" d="M270.294 233.47l-22.059 12.348v-3.145l22.059-12.349z" class="cls-7" transform="translate(-248.235 -230.324)"/>
                    <path id="Path_2079" d="M270.294 241.092l-22.059 12.348v-3.14l22.059-12.348z" class="cls-7" transform="translate(-248.235 -225.668)"/>
                    <path id="Path_2080" d="M270.294 248.715l-22.059 12.348v-3.145l22.059-12.348z" class="cls-7" transform="translate(-248.235 -221.012)"/>
                </g>
            </g>
            <g id="Group_2154" transform="translate(46 20.221)">
                <g id="Group_2121" transform="translate(109.568 239.564)">
                    <ellipse id="Ellipse_332" cx="15.863" cy="27.476" class="cls-8" rx="15.863" ry="27.476" transform="rotate(-89.689 21.622 21.505)"/>
                    <path id="Path_2081" d="M323.791 302.544l-8.285 15.336 53.233.88-8.258-15.422z" class="cls-8" transform="translate(-314.409 -294.939)"/>
                    <path id="Path_2082" fill="#878cf0" d="M352.71 316.658c-7.431 4.29-19.514 4.267-26.99-.048s-7.515-11.294-.084-15.584 19.512-4.267 26.989.05 7.514 11.292.085 15.582z" transform="translate(-311.611 -297.823)"/>
                    <path id="Path_2083" d="M347.448 313.619c-5.548 3.2-14.57 3.186-20.154-.035s-5.611-8.433-.063-11.637 14.57-3.186 20.154.037 5.615 8.433.063 11.635z" class="cls-10" transform="translate(-309.778 -296.764)"/>
                </g>
                <path id="Path_2084" d="M344.633 333.062c.139-1.129-56.814-74.887-56.814-74.887h149.374l-64.087 75.3z" class="cls-2" transform="translate(-221.755 -82.479)"/>
                <g id="Group_2124" transform="translate(182.766)">
                    <g id="Group_2123">
                        <g id="Group_2122">
                            <path id="Path_2085" d="M390.425 260.526s-10.935 12.776-13.85 13.633-.287 3.863 1.952 4.092 9.356-.074 11.431-2.113 7.938-4.221 7.938-4.221a33.055 33.055 0 0 0-1.585-10.788z" class="cls-11" transform="translate(-351.09 -81.043)"/>
                            <path id="Path_2086" d="M382.686 205.315s-1.416 28.274-.9 37.545 2.779 55.3 2.779 55.3c5.986 1.285 9.791 0 9.791 0 1.968-35.291 1.912-45.44 2.476-50.7s1.263-20.476 1.263-20.476c4.221-8.733-.195-20.1-2.276-22.834s-13.133 1.165-13.133 1.165z" class="cls-12" transform="translate(-347.187 -116.08)"/>
                            <path id="Path_2087" d="M396.848 268.336c-.367 5.168-2.234 11.257-2.706 14.355a7.338 7.338 0 0 0 1.353 5.851c.714 1 9.453-1.894 10.646-5.261s-1.253-6.315-1.442-12.628c-2.824-5.053-7.851-2.317-7.851-2.317z" class="cls-11" transform="translate(-339.64 -76.723)"/>
                            <path id="Path_2088" d="M387.942 206.7s1.5 25.734 3.877 34.305 4.5 33.711 5.512 38.1 2.242 31.467 2.242 31.467a19.292 19.292 0 0 0 9.71 0c-.114-25.363.5-45.978 0-52.935s.2-27.572.2-27.572c2.252-9.6 2.386-10.822 0-17.2s-12.638-11.43-21.541-6.165z" class="cls-12" transform="translate(-343.357 -115.267)"/>
                            <path id="Path_2089" d="M399.895 167.951c-8.882 2.5-13.651 24.822-16.139 29.835s-23.224 6.263-23.224 6.263c-1.245 4.349 2.281 8.911 2.281 8.911 19.972-.83 27.018-2.489 30.719-10.368s16.696-31.956 6.363-34.641z" class="cls-12" transform="translate(-360.265 -137.595)"/>
                            <path id="Path_2090" d="M387.279 167.959c7.89-.348 26.177 3.753 32.2 11.434s-2.721 21.254-4.813 29.432.967 28.715.962 30.686c-9.346 6.2-31.858 6.983-34.386-2.26-1.044-10.06 1.261-22 1.385-27.888-.305-12.64-5.791-37.663 4.652-41.404z" class="cls-7" transform="translate(-347.649 -137.603)"/>
                            <path id="Path_2091" d="M394.278 169.829c-5.078 17.833-6.278 37.843-5.778 45.413s.7 32.037.7 32.037c-5.909-3.111-8.5-8.813-8.5-11.405s2.225-24.737 2.154-26.518-2.983-22.108-2.154-31.232 6.808-10.173 6.808-10.173h7.6z" class="cls-12" transform="translate(-347.874 -137.595)"/>
                            <path id="Path_2092" d="M386.617 155.752c-3.475 1.1 0 9 0 9z" class="cls-13" transform="translate(-345.11 -145.047)"/>
                            <path id="Path_2093" d="M386.269 159.09a24.291 24.291 0 0 0-.815 8.219c.493 3.594.818 10.753 4 13.043s7.75-.369 10.774-2.935a17.963 17.963 0 0 0 6.3-13.029c.073-5.727-2.168-12.744-10.426-12.386s-9.833 7.088-9.833 7.088z" class="cls-14" transform="translate(-344.945 -147.346)"/>
                            <path id="Path_2094" d="M400.278 164.619s-.644 7.373 1.289 10.094c.139 1.814-5.06 9.5-10.237 8.161-3.014-.781-2.653-4.295-2.653-4.295a82.792 82.792 0 0 0 0-9.164z" class="cls-14" transform="translate(-342.917 -139.63)"/>
                            <path id="Path_2095" d="M384.818 154.676c-1.176 4.246.166 5.772 3.745 6.99s13.1-1.543 13.1-1.543c-.644 4.549.788 6.9.788 6.9 1.574-4.467 3.006-2.192 3.149 1.38s-1.861 3.492-1.861 3.492c.143 3 1.11 4.027 1.11 4.027 3.829-2.647 9.042-20.344 2.141-20.753-.1-6.169-19.653-9.586-22.172-.493z" class="cls-13" transform="translate(-345.52 -149.107)"/>
                            <path id="Path_2096" d="M400.345 170.155c-6.139 12.947-9.354 24.766-9.146 35.446s2.413 41.783 2.413 41.783c10.651-2.592 17.908-5.6 19.983-9.227-4.562-12.027-6.221-20.115-5.289-23.537s8.979-29.507 4.8-37.252c-3.97-4.323-12.761-7.213-12.761-7.213z" class="cls-12" transform="translate(-341.374 -136.249)"/>
                            <path id="Path_2097" d="M405.242 173.4c7.342 3.655 12.645 21.212 18.245 26.641 3.173 3.077 18.846 7.093 23.2 7.2 1.687 3.842-1.347 8.114-1.347 8.114-26.75-2.511-27.933-3.984-36.161-14.482-10.217-13.031-13.767-29.987-3.937-27.473z" class="cls-12" transform="translate(-336.336 -134.42)"/>
                        </g>
                        <path id="Path_2098" d="M399.508 169.084a15.113 15.113 0 0 0 1.369 1.725s-2.663 5.82-3.623 8.389a13.632 13.632 0 0 1-3.484 4.713l-3.452-3.766c4.757-2.517 9.19-11.061 9.19-11.061z" class="cls-7" transform="translate(-341.906 -136.903)"/>
                        <path id="Path_2099" d="M428.823 195.713a26.82 26.82 0 0 1 6.5-.979c2.8.069 5.6-.839 6.157-.77s.349 2.168-3.5 2.658c3.219.839 5.947 1.4 7.835.77s1.679 1.959 0 3.707-4.407 2.03-6.3 2.239-9.3-1.189-11.542-2.1c-.759-4.338.85-5.525.85-5.525z" class="cls-14" transform="translate(-319.024 -121.707)"/>
                    </g>
                    <path id="Path_2100" d="M389.561 170.242c.316-.393 1.073 7.265 2.22 9.2a14.044 14.044 0 0 1-3.528 2.64s-1.317-8.566 1.308-11.84z" class="cls-7" transform="translate(-343.369 -136.204)"/>
                    <path id="Path_2101" d="M391.622 175.854l-2.948 1.807a17.689 17.689 0 0 1 .72 3.916h2.756l2.051-2.927z" class="cls-15" transform="translate(-342.91 -132.767)"/>
                    <path id="Path_2102" d="M390.521 179.6c-4.1 21.267-3.681 34.418-3.681 34.418l2.081 5.851 4.494-6.551s-3.256-24.985-.138-33.717a2.087 2.087 0 0 0-2.756-.001z" class="cls-15" transform="translate(-344.037 -130.785)"/>
                </g>
                <g id="Group_2126" transform="translate(0 27.69)">
                    <path id="Path_2103" d="M271.425 187.645s13.739 9.717 19.493 12.94 28.232-9.428 28.232-9.428 3.054 1.569 1.711 6.445c-14.714 9.913-25.566 14.6-29.943 13.614s-17.578-8.731-22.05-11.112-3.568-13.024 2.557-12.459z" class="cls-16" transform="translate(-235.042 -153.268)"/>
                    <g id="Group_2125" transform="translate(6.679 89)">
                        <path id="Path_2104" d="M267.833 284.847c.279 3.976.646 7.948.646 7.948h.883s0-6.01.941-4.746c-.131-3.273-2.47-3.202-2.47-3.202z" class="cls-12" transform="translate(-240.643 -182.875)"/>
                        <path id="Path_2105" d="M280.985 314.074c.425 0 1-.462 1.509-1.158-.9-1.076-1.8-2.13-2.392-2.956-1.912-2.653-5-8.539-5.15-11.188s1.472-30.31 1.914-33.695 1.709-16.186 1.59-16.921-11.892 4.546-11.892 4.546c.148 1.045 1.74 7.666 1.091 11.933s-1.679 7.086-1.091 14.063 3.974 18.159 2.8 23.458c-.021.1-.037.179-.058.271 3.459 4.747 4.676 13.981 11.679 11.647z" class="cls-14" transform="translate(-241.525 -205.332)"/>
                        <path id="Path_2106" d="M281.628 292.308c-.509.7-1.084 1.158-1.509 1.158-7 2.334-8.22-6.9-11.682-11.647-1.1 5.036-.609 5.628.306 6.35s4.167 4.709 4.755 7.505 9.417 2.5 11.036 1.912c1.114-.405-.911-2.898-2.906-5.278z" class="cls-12" transform="translate(-240.659 -184.724)"/>
                        <path id="Path_2107" d="M264.187 274.8c-.342 3.1-2.154 26.932-1.859 30.911.176 2.424 1.329 6.239 2.047 9.3.459 1.943.73 3.591.459 4.38-.706 2.036-.741 8.1-4.026 6.732s-5.474-5.59-4.8-10.263-.13-6.922.058-9.712-1.683-20.163-1.977-26.331c-.295-6.192 1.766-9.135 1.919-13.254s-1.1-12.713-1.1-12.713 14.184-7.439 13.019 1.53-3.399 16.334-3.74 19.42z" class="cls-14" transform="translate(-249.057 -203.582)"/>
                        <path id="Path_2108" d="M251.423 224.792c-1.93 9.712 2.668 16.185 3.513 18.39s-1.848 29.721-1.848 29.721c7.457 11.478 33.5 4.415 37.77-2.795-.583-16.956-2.049-44.731-1.909-47.674s-37.526 2.358-37.526 2.358z" class="cls-13" transform="translate(-250.954 -221.545)"/>
                        <path id="Path_2109" d="M264.725 295.317c-.221 4.143-1.324 7.877-4.609 6.511s-5.474-5.59-4.8-10.263c1.766 5.155 8.51 4.931 8.369-.849a29.247 29.247 0 0 1 1.04 4.601z" class="cls-12" transform="translate(-248.365 -179.29)"/>
                    </g>
                    <path id="Path_2110" d="M269.661 167.8c4.488 4.277 5.981 8.008 5.329 12.206s-1.4 9.514.746 11.1c-4.57 3.544-13.224-1.585-13.048-2.518s4.815-14.458 5.247-14.551z" class="cls-13" transform="translate(-237.109 -165.377)"/>
                    <path id="Path_2111" d="M282.4 188.549c-9.606-4.813-26.111-2.026-32.561 5.05s7.106 20.168 9.348 27.706-13.217 28.675-8.119 35.154c10.01 5.711 38.859 1.815 41.566-6.7-.1-12.636-7.645-23.694-5.848-28.941.1-3.37 4.923-14.364 2.99-18.612-3.949-8.667-3.092-11.014-7.376-13.657z" class="cls-17" transform="translate(-246.012 -154.171)"/>
                    <path id="Path_2112" d="M276.372 174.038a24.316 24.316 0 0 1 .817 8.219c-.493 3.594-.818 10.753-4 13.043s-7.75-.369-10.774-2.935a17.964 17.964 0 0 1-6.3-13.029c-.071-5.727 2.168-12.744 10.427-12.384s9.83 7.086 9.83 7.086z" class="cls-14" transform="translate(-241.125 -165.903)"/>
                    <path id="Path_2113" d="M260.365 181.5s.535 7.375-1.07 10.1c-.114 1.812 4.2 9.5 8.5 8.161 2.5-.783 2.2-4.3 2.2-4.3-.267-2.682 0-9.163 0-9.163z" class="cls-14" transform="translate(-239.18 -157.006)"/>
                    <path id="Path_2114" d="M270.609 174a10.614 10.614 0 0 1-6.854 7.273c-.839 7.835 1.012 13.393 3.545 14.617-6.84 2.484-10.811.582-12.678-3.095S251.3 173.438 259 168.681 270.609 174 270.609 174z" class="cls-13" transform="translate(-242.942 -165.619)"/>
                    <path id="Path_2115" d="M266.848 174.676c2.379 3.217 7.64 3.357 8.507 3.217-.113-12.452-12.144-13.71-16.062-9.234 3.219 6.155 7.555 6.017 7.555 6.017z" class="cls-13" transform="translate(-239.181 -166.296)"/>
                    <path id="Path_2117" d="M259.079 217.335c.47-.209-2.331-22.38-2.331-22.38l19.534-3.865.838 34.234-17.72 4.145z" class="cls-7" transform="translate(-240.735 -151.15)"/>
                    <path id="Path_2118" d="M264.671 206.878s6.228-6.071 7.608-7.47 1.364.477-.425 3.736c2.806.659 4.6 4.42 4.8 5.736s-3.362 4.712-4.378 5.111-5.174 0-5.174 0z" class="cls-14" transform="translate(-235.895 -146.354)"/>
                    <path id="Path_2119" d="M253.79 189.828c5.33.382 6.189 29.233 6.189 29.233s14.591-6.785 15.6-6.609c5.408 1.174 2.434 7.114 2.434 7.114-11.421 8.675-16.038 13.66-21.613 12.587s-9.789-21.012-9.59-30 3.603-12.565 6.98-12.325z" class="cls-16" transform="translate(-246.808 -151.928)"/>
                </g>
                <g id="Group_2144" transform="translate(31.642 12.169)">
                    <g id="Group_2127" transform="translate(13.739 13.737)">
                        <path id="Path_2120" fill="#85cded" d="M458.486 256.937a91.66 91.66 0 0 1-89.869 91.74c-.63.01-1.26.019-1.89.019s-1.26 0-1.89-.019a91.753 91.753 0 1 1 93.648-91.74z" transform="translate(-274.979 -165.189)"/>
                    </g>
                    <g id="Group_2128" transform="translate(18.609 103.203)">
                        <path id="Path_2121" fill="#8fd7ef" d="M451.768 252.59a91.805 91.805 0 0 1-85 62.159c-.63.01-1.26.019-1.89.019s-1.26 0-1.89-.019A91.783 91.783 0 0 1 278 252.59c12.31-18.54 46.554-31.863 86.878-31.863s74.579 13.324 86.89 31.863z" transform="translate(-278.002 -220.727)"/>
                    </g>
                    <g id="Group_2143">
                        <g id="Group_2142" clip-path="url(#clip-path)">
                            <g id="Group_2134" transform="translate(11.052 23.416)">
                                <g id="Group_2129" transform="translate(0 27.375)">
                                    <path id="Path_2122" d="M273.313 242.9c-.161-14.738 9.623-28.556 27.552-38.906 36.649-21.159 96.469-21.053 133.35.24 17.876 10.321 27.807 24.047 27.967 38.65l-.981.01c-.156-14.242-9.913-27.669-27.477-37.809-36.611-21.136-95.991-21.244-132.369-.24-17.607 10.165-27.217 23.677-27.061 38.046z" class="cls-10" transform="translate(-273.311 -188.191)"/>
                                </g>
                                <g id="Group_2130" transform="translate(47.732)">
                                    <path id="Path_2123" d="M319.995 338.651a34.551 34.551 0 0 1-17.053-4.251l.478-.857c12.293 6.862 28.622 5.119 45.979-4.9 36.288-20.953 65.813-71.874 65.813-113.514 0-20.962-7.69-36.651-21.1-43.046l.422-.886c13.763 6.564 21.657 22.576 21.657 43.932 0 41.952-29.743 93.255-66.3 114.363-10.537 6.084-20.719 9.159-29.896 9.159z" class="cls-10" transform="translate(-302.942 -171.197)"/>
                                </g>
                                <g id="Group_2132" transform="translate(27.888)">
                                    <g id="Group_2131">
                                        <path id="Path_2124" d="M386.82 338.651c-9.176 0-19.358-3.075-29.895-9.159-36.561-21.107-66.3-72.411-66.3-114.363 0-21.355 7.893-37.368 21.657-43.932l.422.886c-13.407 6.4-21.1 22.084-21.1 43.046 0 41.64 29.523 92.561 65.813 113.514 17.359 10.021 33.69 11.763 45.979 4.9l.478.857a34.553 34.553 0 0 1-17.054 4.251z" class="cls-10" transform="translate(-290.623 -171.197)"/>
                                    </g>
                                </g>
                                <g id="Group_2133" transform="translate(.284 82.073)">
                                    <path id="Path_2125" d="M367.64 298.441c-51.915 0-94.153-34.226-94.153-76.295h.983c0 41.527 41.8 75.312 93.17 75.312s93.17-33.785 93.17-75.312h.983c0 42.068-42.238 76.295-94.153 76.295z" class="cls-10" transform="translate(-273.487 -222.146)"/>
                                </g>
                            </g>
                            <g id="Group_2135" transform="translate(20.959 10.797)">
                                <path id="Path_2126" d="M335.513 342.059c1.339-.269-.134-2.542 2.275-2.275s8.293 2.1 10.7.514-1.606-3.457 1.2-4.259 5.466-2.255 5.886-4.013.535-2.943-1.606-3.344-4.28-2.676-6.152-3.211S342.6 325.2 340.6 324s-6.822-5.218-8.7-5.351-5.885 0-3.879-.668 3.478-.535 2.542-1.471-3.211-5.351-4.815-6.555-6.02-2.275-8.025-4.815a56.96 56.96 0 0 1-4.683-8.294s-5.751-1.6-7.758-4.146-4.013-5.082-5.216-5.35-2.275-1.2-3.077-1.339-1.337 1.2-2.275 1.74-1.872-1.74-2.407-3.478-2.408-1.07-3.211-2.542a13.5 13.5 0 0 1-1.472-5.35c.134-.938 1.606-4.013 1.2-5.485s-2.676-3.077-3.344-4.548.936-4.146 1.872-5.483 2.007-1.606.669-2.809-2.991-1.339-2.7 0-1.179 1.7-2.249-.954-1.471-8.945.669-11.354.8-5.483 3.21-4.949 2.943 2.408 3.478 4.28 1.606 2.275 1.472-.4c2.54 3.077 2.407 4.815 2.808 5.218s.938.4.938 1.2-.67 4.28-.536 6.154 0 3.612.8 3.344 1.471-3.881 1.471-6.154.535-4.681 1.738-4.815 2.408-1.339 3.881-1.071 3.476-.535 3.879-2.006 5.082-5.875 6.419-5.814 2.542 1.935 3.745 1.667-.224-3.344 1.962-3.612 4.325-.938 4.726 0-2.676 1.471-1.738 2.139 2.674-.535 3.879-.4 4.548 1.2 4.681-.134.4-2.97-.669-2.088-.936 2.088-1.74 1.018-1.738-1.245-1.471-2.83 2.275-3.19 1.738-3.591-3.478-.535-3.879-1.07 1.2-2.141 3.478-1.606 3.612 2.408 5.084 2.275 3.612-2.275 3.612-.8-2.676 3.57-3.077 4.794.267 1.893 2.139 2.429 1.74 2.407 2.809 1.872 1.74-4.548.535-5.216-2.674 1.6-1.738-1.2 2.943-3.209 2.139-5.751-2.407-5.485-2.407-6.555 1.2-6.688 1.2-6.688-1.738 2.007-2.943 1.606-2.006-1.2-1.337-2.141 2.275-2.542 1.872-2.676a1.556 1.556 0 0 1-.936-1.471 4.691 4.691 0 0 0-1.2-2.275c-.4-.535-.4-1.337-1.07-1.2s-1.74 1.873-2.141 2.943-2.676 1.337-2.676 2.273.267 3.612-2.006 4.014-3.478 0-3.879.669-2.1 4.681-2.988 4.414-.446-1.873 0-3.612 2.051-1.337 1.783-3.077-1.2-.936-.936-2.542-1.16-3.879-.847-4.547 1.65-.8 1.516-1.872.267-4.282 2.943-4.414a40.335 40.335 0 0 0 8.961-1.606 2.428 2.428 0 0 1 2.542 0c.535.4.535.364 1.74-.353s5.082-2.858 5.617-2.323 0 3.612-1.2 4.817-2.007 2.808-2.943 2.54-3.344-1.738-2.676-.669 2.408 1.471 2.408 2.275-.669 4.146.267 4.681 1.07-1.873 1.471-2.006.134 2.808 1.071 1.872 1.337-3.612 1.471-4.681-.535-1.339.134-1.071 0 2.943 1.2 2.943 3.879-.4 2.808-1.872-1.6-3.879-1.2-4.146a1.84 1.84 0 0 0 1.07-1.472c0-.8 1.339-4.548-.535-5.082s-2.943.669-1.872-.535a7.538 7.538 0 0 0 1.471-2.809s-2.809-.4-4.28 1.337-1.07 2.275-1.472 2.542-3.209 2.141-3.612 1.471 2.275-2.139 2.542-2.54 1.472-3.745 1.873-3.879-4.415 2.273-5.619 3.343-3.478 1.472-3.21 1.071 6.956-3.21 5.351-3.745-4.549 1.872-5.084.8.938-.412.4-1.477-2.407.541-2.006-1.332-.4-2.273.8-2.407 1.337-1.2 2.275-2.809 1.07-5.886 2.139-6.02 8.428-3.879 9.1-5.483 3.077-3.077.4-2.542-5.084 1.471-4.681.936.134-1.962-2.141-1.047-9.765 3.054-10.166 4.391.938 1.472-3.745 4.548-8.694 7.357-10.835 8.7-1.872 2.808-3.745 3.612-2.273.267-3.879 2.273-7.892 6.421-9.1 8.294-7.624 9.63-11.37 20.064-5.886 20.333-5.752 22.739-.267 11.37.8 12.976a15.761 15.761 0 0 1 2.275 6.822c.267 2.674 2.408 4.146 3.077 5.751s.267 5.216.4 6.287 3.344 6.956 3.612 7.892.8-1.07 1.337 0a15.643 15.643 0 0 1 1.74 6.555c0 2.808-3.612 2.943-2.676 5.483s9.9 17.389 13.644 22.739 13.643 14.045 16.586 15.785z" class="cls-10" transform="translate(-279.461 -159.371)"/>
                                <path id="Path_2127" d="M298.4 240.929c.282 1.6-7.022-2.809-7.423-4.113s3.21 1.906 2.808.5-1.6-2.608-.8-2.809 5.115 4.716 5.415 6.422z" class="cls-10" transform="translate(-272.445 -119.906)"/>
                                <path id="Path_2128" d="M294.286 238.069c-1.161-.48-3.612-.9-3.211-2.508s-2.207-6.12-2.909-7.022-2.408-2.107-1.6-2.308 1.906 1.2 3.31 2.809 4.514 7.223 5.116 8.025 1.614 1.96-.706 1.004z" class="cls-10" transform="translate(-275.253 -124.971)"/>
                                <path id="Path_2129" d="M327.222 214.633c.053-1.045.9-2.307-.6-2.408s-2.809 4.114-2.709-2.608.469-9.43 1.74-10.132 1.116-1.6 1.745-2.809-.775-1.6.429-4.113.4-4.815 0-6.22.8-2.809 3.111-3.512 4.213-.6 6.018-1 1.5-1.906 3.111-1.1 2.307 3.612 3.711 2.508 2.007-.4 1.606.6-1.06 2.207.121 3.41.781 3.011 1.083 5.016-1.906.3-2.107 1.606 1.606 1.873 2.107 3.7.5 3.528-1.5 4.029-5.218-1-5.92.4a15.3 15.3 0 0 1-3.776 4.013c-1.239 1-1.239-.3-2.242 1.3s-3.923 6.421-4.47 6.922-1.512 1.489-1.458.398z" class="cls-10" transform="translate(-252.311 -152.9)"/>
                                <path id="Path_2130" d="M315.312 186.176c-.778 1.186-2.909.1-2.508-1.5s-1.4-3.41 1-3.811 2.408 1.1 3.31-.5a5.345 5.345 0 0 1 2.508-2.207s3.011-2.407 2.308-.3-5.694 6.915-6.618 8.318z" class="cls-10" transform="translate(-259.261 -155.041)"/>
                                <path id="Path_2131" d="M323.874 184.784c-1.128-.189-3.211-1 0-2.007s7.524-4.615 9.43-3.913.8 2.677.8 2.677-7.219 3.744-10.23 3.243z" class="cls-10" transform="translate(-253.376 -153.949)"/>
                                <path id="Path_2132" d="M341.851 200.528c-3.75 1.563-5.06-5.016-3.433-4.615s3.032-1.6 4.838-.2 1.004 3.811-1.405 4.815z" class="cls-10" transform="translate(-243.865 -143.911)"/>
                                <path id="Path_2133" d="M347.673 185.948c-3.705-1.522-5.116-2.407-4.815-3.109s-.6-4.258 1.6-1.878 3.779 5.219 3.215 4.987z" class="cls-10" transform="translate(-240.758 -153.108)"/>
                                <path id="Path_2134" d="M435.615 257.9c0-.5-1.308-.9-1.806 1.508s.9 5.715-1.508 5.008-3.507-2.809-4.414-4.013a35.185 35.185 0 0 0-2.3-2.7c-1.308-1.5-4.311-4.309-3.507-5.113s.4-1.411 2.3-.208 5.02 3.418 5.22 4.618 1.123 5.722 2.608 4.815.8-8.235.6-10.033c-.2-1.814.2-10.136-.3-12.248s-1.508-4.2-2.11-4.309-.907.6-.6 2.207 1.606 4.807.1 3.057-4.013-4.261-3.106-4.462 1.2 1.9 1.4 0-.4-3.811.706-3.211-2.215-10.73-2.31-12.84-11.173-32-49.125-48.154-46.477-4.214-46.477-4.214c-.506.8-5.827 2.312-6.228 3.412s-.8.907-2.408 1.1c-1.6.209-5.313.8-2.3 1.012 3.009.192 12.641-2.215 16.959-2.616s6.315.4 9.124.706 9.615.4 9.615.4-1.068 2.521 1.685 2.263a5.462 5.462 0 0 1 4.349 1.149c.907.506-1.2.907-.8 1.4s3.011.6 7.118 3.306 5.828 1.509 7.128 1.814-4.109.3-1.806 2.1 7.624 3.033 7.727 4.525-.609 3.934.3 5.121a35.3 35.3 0 0 1 2.7 5.1c1.107 2.2 5.216 4.51 1.814 4.206-3.42-.3-5.619-.5-4.222-1.2 1.413-.7 2.215-3 .209-2.6s-8.932.5-9.736 1.2.4 2.408 1.1 5.715.506 4.317.1 8.225-.3 3.692.7 6.26c1.012 2.569 3.114 4.069 3.515 3.17s-.6-4.237 1.509-3.17 3.507 3.571 4.206 4.174 1.909 1.1 2.215 0-2.007-5.321-1.711-6.123-1.1-2.007-1.1-2.007a6.145 6.145 0 0 1-2.312-3 9.1 9.1 0 0 0-.9-3.114c-.8-1.7-1.709-3.612-.907-3.612s1.308.5 2.007 2.9 1.308 2.809 1.806 3.315a5.646 5.646 0 0 0 3.515 1.2c1-.2.9-2.809 2.3-2.407s-1.806 1.8-1.1 3.106 3.612 2.713 3.507 3.314-2.608-.907-2.407.1c.2 1 1.909 3 2.407 3.708s.3 3.009-.7 2.608c-1.012-.4-1.012-2.608-1.709-.6s-.3 2.809-1.4 3.307-.2 0-1.108.506-2.3 1.1-3 0 0-1.6-.907-2.608-1.806-2.713-1.9-1.509a3.294 3.294 0 0 0 .8 2.914c.9 1.2 2.007 1.9 1.8 2.912-.192 1-2.1 1.1-2.407 3.307s.4 2.1-.4 3.211-.8 1.107-.8 2.1a3.888 3.888 0 0 1-1.1 2.56c-.506.457-1.806-1.155-1.5 0s1.2 1.558.193 1.854-3.4.3-2.809.907a5.236 5.236 0 0 0 2.912 1.1c.8 0 1.806 1.508 2.408 2.407a6.275 6.275 0 0 1 .8 3.612c-.2.707-4.614 1.911-6.018 2.312s-2.207.4-2.3 1.108a8.043 8.043 0 0 0 1 3.908c.8 1.606-.594 2.511-.1 3.507.5 1.012 1.6 1.91 1.2 2.809s1.205-.193 2.906.506 1.107 2.11 2.511 1.308.3-1.6 1.5-1.91 2.511.4 2.616-.706 1.8-4.109 1.6-4.414-1.6-.3-.907-1.606a36.849 36.849 0 0 0 2.408-5.409c0-.506-1.806-2.511 0-2.713s1.709.4 2.408-.4.907-4.317 2.7-3.916c1.814.4 2.809 1.911 4.518 2.11s4.414.7 5.216 2.007-.7 3.715-.7 3.715-1.606.7-1.108 1.1 3.114.8 3.114.4-1.508-1-.8-1.709a4.793 4.793 0 0 0 .8-3.507c-.3-.506-2.11-1.1-1.107-1.5s2.207.193 1.909-.611-2.407-1.4-3.418-1.5a8.664 8.664 0 0 1-3.507-.8c-.907-.6-2.007-1-2.207-1.711s-1.806-2.511-.4-2.255 2.5 1.453 3.811 1.558 5.81.907 5.762 1.4-.649 1.107.859 1.91a8.031 8.031 0 0 1 3.21 2.5c.4.8 1.108 2.408 1.509 1.108a14.074 14.074 0 0 0 .193-3.42c.1-.8-3.91-1.7-2.809-2.3s1.508-.6 1.413-1.308-.506-2.912 1.1-1.453 2.608 4.069 4.117 4.069 1.3-.208 1.6-1.2c.3-1.012.3-1.2 1.5-1.308s.6-3.908 1.606-2.809 3.106 6.621 3.209 8.227-1.9 1.91-2.407 3.114-.907 3.307-3.315 3.507-3.305 0-4.013 1.606.506 2.536-.1 4.277-.6 2.344-2.312 1.741-2.9.8-3.106-.3-2.7 1.7-4.013 1.4-.7-.8-1.806-1.1-.3-.673-.5-1.741-1.814-2.376-1.308-2.777-.2-1.5-1-.8.2.907-1.7 1.814-3.017.923-4.013 1.766c-1.012.834-.3.939-2.006 1.542s-2.513.1-2.513 1.107c0 1-.8 1.7-2.207 2.6s-.8 1.31-2.1 1.606a14.219 14.219 0 0 1-3.019 0c-.593.1-2.006.1-1.9 1.107s-.2 3.307-1.1 3.918c-.907.593-1.2 0-1.6 2.005s.192 1.8.3 3.307a5.537 5.537 0 0 1-2.408 4.718c-1.6.9-2.743-.506-2.775 1.2a5.251 5.251 0 0 1-1.437 3.306c-.6.9-.707 1-.5 2.809.192 1.806-2.312 2.1-2.713 4.013s-.9 2.007-.3 3.21 1.6 1.911 1.2 4.109a31.583 31.583 0 0 1-1.4 4.317c-.3 1.2.9 2.713 1 4.214s1.911 1.4 2.913 2.7 2.61 1.108 3.106 2.312 1.814 1.107 3.019 1.806 1.5 2.11 4.71 1.5c3.21-.593 3.011-1.9 5.417-2.3s2.408-1 5.417-2.007 3.612-3.507 5.722-4.212 2.7-1.108 3.8-.6-1.8 2.407.506 1.4 2.408-2.713 4.309-2.5 1.012.5.611 2.408-2.511 4.414-1.814 4.912 3.114.8 3.716 1.91-1.4 1.7-.7 3 1.3 1.413.3 2.007-3.7 5.28-4.615 6.524-.707 2.608.9 2.914 29.2-39.534 31.605-49.76 1.013-22.654 1.013-23.154zm-22.768-25.281c-2.215.6-.506 3.731-1.308 4.212-1.171.707-3.716 2.007-4.214-1.4s-3.306-8.829-1.3-7.529 1.493 3.821 2.4 1.911 2.312-2.713 1.308-2.809-1.316 1.806-1.308-.4-.81-4.317 0-3.114-.2 2.914 2.312 2.914 4.013-.907 4.309 1.2 0 4.414-2.199 5.017zm8.122-6.619c-1.572 0-1.7-2.809-3.813-3.315s-4.212-.594-4.71-3.4-1.606-6.421-.61-5.619c1.012.8 1.91 3.74 2.215 3.773s2.3 1.139 2.152.738 1.356-1.3 1.758-.3.2 1.79.6 2.35 2.5 2.271 3.114 2.922.699 2.851-.706 2.851z" class="cls-10" transform="translate(-255.367 -163.363)"/>
                                <path id="Path_2135" d="M354.01 217.505c.111.3.8-2.207 2.909-2.71s2.676-.8 2.141-1.7-.937-.5-.736-1.4-2.107-1.606-2.508-2.308-1.5-1.6-1.806-2.105-1.5-.5-1.606-1.2 1.1-2.407 0-2.407-2.006.6-2.006 0 .4-2.829-.7-1.514-.5 2.416-.5 3.119 1.3 2.307 1.2 2.608.3-1.5.6-.9-.2 1.5.4 1.4 1.906-.1 2.005.4.862 1.3.731 1.6-1.133.6-1.033.9.4.5.4 1-.8 1.4-.4 1.506 1.666-1 1.033.2a4.623 4.623 0 0 0-.124 3.511z" class="cls-10" transform="translate(-236.963 -139.921)"/>
                                <path id="Path_2136" d="M349.1 212.805c-.876-.195-.3-1.906-.2-2.608s-1.2-.5-1.2-1.706 1.606-.2 1.4-1.1.5-.694 1.3-.747 1 1.45 1.3 2.052.9.9 0 1.7-1.692 2.611-2.6 2.409z" class="cls-10" transform="translate(-237.776 -136.927)"/>
                                <path id="Path_2137" d="M366.024 220.619c-1.1-.4-1.5-2.507-1.3-2.909s2.005-1.2 2.207.5 1 3.111-.907 2.409z" class="cls-10" transform="translate(-227.408 -130.496)"/>
                                <path id="Path_2138" d="M322.806 184.889c-.936-.47-3.31-1.77-2.508-2.49s2.608-1.923 2.508-.519 1.409 3.72 0 3.009z" class="cls-10" transform="translate(-254.615 -152.449)"/>
                                <path id="Path_2139" d="M319.542 182.57c-1.253.358-2.816.619-2.916 0s.9-1.622 1.706-1.622 2.348 1.297 1.21 1.622z" class="cls-10" transform="translate(-256.762 -152.621)"/>
                                <path id="Path_2140" d="M360.564 183.431c-1.155 1.155-2.007.6-2.709 0s-5.016-3.011-6.521-3.913-3.109-2.229-3.009-2.469a1.993 1.993 0 0 1 2.307.564c.6.9 4.715 3.009 6.421 3.711s4.615 1.004 3.511 2.107z" class="cls-10" transform="translate(-237.397 -155.104)"/>
                            </g>
                            <g id="Group_2141" transform="translate(11.054 11.827)">
                                <g id="Group_2136" transform="translate(0 93.654)">
                                    <path id="Path_2141" d="M368.338 276.846c-24.247 0-48.542-5.348-67.058-16.04-17.878-10.321-27.809-24.047-27.968-38.65l.981-.01c.155 14.242 9.913 27.668 27.477 37.809 36.609 21.136 95.989 21.244 132.369.24 17.607-10.165 27.217-23.677 27.061-38.046l.981-.01c.161 14.738-9.623 28.556-27.552 38.906-18.248 10.539-42.246 15.801-66.291 15.801z" class="cls-21" transform="translate(-273.312 -222.141)"/>
                                </g>
                                <g id="Group_2137" transform="translate(27.886 8.297)">
                                    <path id="Path_2142" d="M310.467 335.649c-12.8-7.143-19.844-22.414-19.844-43 0-41.952 29.742-93.255 66.3-114.363 16.742-9.667 32.772-11.743 45.137-5.844l-.422.886c-12.066-5.754-27.77-3.691-44.224 5.809-36.29 20.951-65.813 71.873-65.813 113.512 0 20.212 6.869 35.177 19.342 42.139z" class="cls-21" transform="translate(-290.623 -169.153)"/>
                                </g>
                                <g id="Group_2138" transform="translate(49.543 8.298)">
                                    <path id="Path_2143" d="M395.662 335.648l-.478-.857c12.473-6.962 19.342-21.927 19.342-42.139 0-41.64-29.524-92.561-65.812-113.512-16.455-9.5-32.16-11.561-44.224-5.809l-.422-.886c12.365-5.9 28.4-3.823 45.137 5.844 36.559 21.107 66.3 72.411 66.3 114.363.001 20.583-7.047 35.854-19.843 42.996z" class="cls-21" transform="translate(-304.067 -169.154)"/>
                                </g>
                                <g id="Group_2139" transform="translate(93.943)">
                                    <path id="Rectangle_664" d="M0 0H0.982V187.323H0z" class="cls-21"/>
                                </g>
                                <g id="Group_2140" transform="translate(.282 17.367)">
                                    <path id="Path_2144" d="M461.793 251.078h-.983c0-41.528-41.8-75.312-93.17-75.312s-93.17 33.783-93.17 75.312h-.983c0-42.07 42.237-76.294 94.153-76.294s94.153 34.225 94.153 76.294z" class="cls-21" transform="translate(-273.487 -174.784)"/>
                                </g>
                            </g>
                        </g>
                    </g>
                </g>
                <g id="Group_2146" transform="translate(28.765 141.008)">
                    <g id="Group_2145">
                        <path id="Path_2145" d="M284.105 362.783v1.252c2.5 1.466 8.108.689 9.573 0 .965-1.459 3.579-1.073 5.047-.493 5.606.493 7.656-.337 9.53-1.706.949-.694 2.65-2.5 2.445-4.422-6.672 1.532-26.595 5.369-26.595 5.369z" class="cls-11" transform="translate(-252.788 -162.864)"/>
                        <path id="Path_2146" d="M293.926 354.724s6.125 1.725 9.747 2.242 6.21-.085 7.072 1.208-1.034 4.657-4.225 5.778-9.747-.172-12.162.345-8.539 1.637-10.005.129 0-8.839 0-8.839z" class="cls-13" transform="translate(-253.035 -164.507)"/>
                        <path id="Path_2147" d="M268.982 354.676l10.957-12.268c4.369-1.248 8.965-1.509 8.38 2.524-.517 3.579-6.215 5.144-10.132 8.623l-3.612 3.207c-2.6 2.305-5.914.288-5.593-2.086" class="cls-13" transform="translate(-262.04 -172.528)"/>
                        <path id="Path_2148" d="M314.784 259.895c2.394-1.464 5.551-4.744 6.585-7.328a22.118 22.118 0 0 0 1.931-6.967 11.1 11.1 0 0 0-1.519-6.17 1.162 1.162 0 0 0-.343-.409c-.543-.353-1.182.274-1.529.822-1.954 3.1-3.707 6.569-6.157 9.3a12.5 12.5 0 0 1 1.029-3.26c.789-1.614-.586-1.558-.586-1.558-.921.586-3.586 4.9-3.964 6.5s-1.34 5.717-1.34 5.717l.5.453c-.4.567-.662.915-.662.915s4.414 2.99 6.055 1.985z" class="cls-14" transform="translate(-237.743 -235.247)"/>
                        <path id="Path_2149" d="M272.5 258.175s-15.136 5.5-3.346 21.106z" class="cls-12" transform="translate(-264.664 -223.487)"/>
                        <path id="Path_2150" d="M278.062 239.326a27.043 27.043 0 0 1 10.832.295c5.285 1.561 8.174 4.939 9.449 9.954 1.287 5.055 1.664 13.481-1.229 18.177-1.809 2.937-5.838 2.384-8.716 1.621-3.479-.923-8.03-2.423-10.885-4.578-3.974-3-6.076-9.577-6.319-14.33-.209-4.095 1.907-10.326 6.869-11.138" class="cls-14" transform="translate(-260.684 -235.247)"/>
                        <path id="Path_2151" d="M276.477 254.315a10.729 10.729 0 0 0 1.353 1.239 24.739 24.739 0 0 0 9.047 4.417c.554.146 1.155.277 1.772.385l-.279 3.17c-3.7 1.015-7.291-.548-9.846-1.258-1.9-.527-4.855-1.012-4.855-3.014l2.8-4.942z" class="cls-14" transform="translate(-259.163 -225.847)"/>
                        <path id="Path_2152" d="M274.009 241.654c-3.169 2.1-3.014 7.181-2.846 10.5.243 4.752 2.431 11.028 6.4 14.032a11.826 11.826 0 0 0 5.237 2.764 16.693 16.693 0 0 0 1.7-1.149 4.812 4.812 0 0 0 1.819-5.259c-.591-1.915-.651-4.212.433-4.8 1.77-.968 2.953 2.469 2.953 2.469a2.624 2.624 0 0 0 1.719-3.6 6.093 6.093 0 0 1 0-4.187c3.138.061 4.6-4.214 5.591-4.771 2.12-1.192 2.83-1.667 2.49-3.681a6.221 6.221 0 0 0-1.743-3.544c-1.107-1.033-4.836-2.449-6.305-2.816-8.722-2.183-15.447-.627-17.448 4.042z" class="cls-11" transform="translate(-260.739 -236.641)"/>
                        <path id="Path_2153" d="M274.6 355.515l3.612-3.207c3.918-3.48 9.615-5.044 10.132-8.623v-.019a3.856 3.856 0 0 1-.006 1.21c-.517 3.579-6.215 5.144-10.132 8.623l-3.612 3.207c-3.062 2.718-6.294.78-5.593-3.248-.321 2.374 3 4.391 5.593 2.086" class="cls-11" transform="translate(-262.068 -171.28)"/>
                        <path id="Path_2154" fill="#717bdb" fill-rule="evenodd" d="M269.544 298.837c-3.782 5.356 5.677 20.183 3.09 38.64-1.754 12.518-5.176 33.532-4.357 45.39.148 2.162 8.594 3.707 10.883-6.75 3.894-17.779 8.771-28.873 10.487-42.667l-.91-40.009z" transform="translate(-262.534 -201.944)"/>
                        <path id="Path_2155" d="M276.552 295.582c-1.045 16.624 10.865 36.966 10.078 50.387-.813 13.841.693 30.669.731 45.649 0 0 12.235 5.794 12.784-3.161 1.8-29.344 7.416-38.487-.166-92.179z" class="cls-23" transform="translate(-257.442 -200.636)"/>
                        <path id="Path_2156" d="M305.331 303.158a171.02 171.02 0 0 0-2.561-31.8 21.874 21.874 0 0 0-5.224-5.326l-3.914-4.739a140.144 140.144 0 0 1-14.641-4.448l-7.1 2.142c-5.775 2.447-7.679 9.918-5.108 17.375-.063.335 5.872 17.265 6.537 23.532.061.615-4.377 17.232-5.35 24.009 0 0 4.221 3.858 5.387 4.831 8.584 10.653 36.639-2.265 37.7-7.935.394-2.122-3.057-8.714-5.726-17.641z" class="cls-13" transform="translate(-264.054 -224.299)"/>
                    </g>
                    <path id="Path_2157" d="M287.636 287.1c-5.672.139-10.609-7.417-7.512-12.17 1.1-1.693 2.13-3.106 4.022-3.649 4.684-1.342 18.628 1.9 27.52 2.12 7.114-8.67 14.984-24.094 14.984-24.094 5.558.369 7.114 4.372 7.114 4.372-12 30.9-15.951 31.372-16.618 32.087s-29.446 1.334-29.51 1.334z" class="cls-8" transform="translate(-255.804 -228.903)"/>
                </g>
                <g id="Group_2148" transform="translate(128.018 101.294)">
                    <path id="Path_2158" d="M378.594 361.751V363c-2.5 1.466-8.108.689-9.574 0-.965-1.459-3.579-1.073-5.047-.495-5.606.495-7.656-.335-9.53-1.706-.949-.693-2.65-2.5-2.445-4.42 6.671 1.535 26.596 5.372 26.596 5.372z" class="cls-13" transform="translate(-310.578 -123.78)"/>
                    <path id="Path_2159" d="M369.016 353.692s-6.125 1.725-9.747 2.242-6.21-.087-7.072 1.208 1.034 4.657 4.225 5.778 9.747-.172 12.162.345 8.539 1.637 10.005.129 0-8.841 0-8.841z" class="cls-23" transform="translate(-310.573 -125.423)"/>
                    <path id="Path_2160" d="M390.985 353.644l-10.957-12.268c-4.369-1.25-8.965-1.509-8.38 2.524.517 3.579 6.215 5.143 10.132 8.623l3.612 3.206c2.6 2.305 5.914.29 5.593-2.084" class="cls-23" transform="translate(-298.595 -133.445)"/>
                    <path id="Path_2161" d="M385.392 354.481l-3.612-3.206c-3.918-3.48-9.615-5.044-10.132-8.623v-.019a3.858 3.858 0 0 0 .006 1.21c.517 3.579 6.215 5.144 10.132 8.623l3.612 3.207c3.062 2.718 6.294.778 5.593-3.247.321 2.374-3 4.39-5.593 2.084" class="cls-13" transform="translate(-298.595 -132.197)"/>
                    <path id="Path_2162" d="M391.214 297.805c3.782 5.356-5.677 20.183-3.09 38.64 1.754 12.518 5.176 33.531 4.357 45.39-.148 2.162-8.594 3.707-10.883-6.75-3.894-17.779-8.771-28.874-10.487-42.667l.91-40.009z" class="cls-12" transform="translate(-298.891 -162.86)"/>
                    <path id="Path_2163" d="M386.428 294.55c1.045 16.624-10.865 36.965-10.078 50.385.814 13.841-.693 30.671-.731 45.651 0 0-12.235 5.794-12.784-3.162-1.8-29.344-7.416-38.486.166-92.178z" class="cls-12" transform="translate(-306.204 -161.552)"/>
                    <path id="Path_2164" d="M390.156 231.069c.551-2.75.29-7.3-.9-9.809a22.141 22.141 0 0 0-3.8-6.149 11.1 11.1 0 0 0-5.561-3.075 1.146 1.146 0 0 0-.532-.027c-.628.16-.6 1.053-.437 1.68.95 3.541 2.3 7.183 2.643 10.836a12.513 12.513 0 0 1-1.695-2.97c-.648-1.675-1.54-.628-1.54-.628-.2 1.074 1.158 5.96 2.078 7.328s3.96 4.805 3.96 4.805c.143.677.222 1.107.222 1.107s5.182-1.212 5.562-3.098z" class="cls-14" transform="translate(-294.49 -211.988)"/>
                    <path id="Path_2165" d="M379.821 276.548s7.69-19.509 8.222-25.673-4.161-22.958-4.161-22.958 4.071-6.055 6.837-6.622c6.714 14.132 8.526 25.64 8.526 33.2s-8.2 35.307-8.1 35.1-18.077 1.896-11.324-13.047z" class="cls-24" transform="translate(-294.49 -206.302)"/>
                    <path id="Path_2166" d="M363.837 301.693a171.026 171.026 0 0 1 2.561-31.8 21.875 21.875 0 0 1 5.224-5.326l7.2-4.066c2.782-.683 2.246-2.12 4.96-2.962a23.031 23.031 0 0 1 13.491-.016c5.775 2.447 6.882 6.34 4.312 13.8.063.335-1.426 19.688-2.091 25.954-.061.617.727 23.181 1.7 29.959 0 0-4.221 3.858-5.387 4.831-11.2 6.213-34.859.15-35.916-5.522-.391-2.122 1.273-15.924 3.946-24.852z" class="cls-16" transform="translate(-305.781 -184.783)"/>
                    <g id="Group_2147" transform="translate(64.579 40.765)">
                        <path id="Path_2167" fill="#ffc8af" d="M369.254 243s-1.529 5.64-1.815 6.787a10.883 10.883 0 0 0 0 3.538c.1.764-1.244 2.867-1.052 3.823s1.052 6.692 2.867 8.315 5.161 1.052 5.161 1.052-.287 5.066 0 5.735 8.125.1 11.374-1.815 2.1-7.073 2.1-7.073L379.577 243z" transform="translate(-366.368 -233.807)"/>
                        <path id="Path_2168" fill="#606bf1" d="M368.3 246.488s-.86-4.014 0-6.882 8.6-2.581 11.326-1.72 12.331 4.014 12.9 6.308a9.18 9.18 0 0 1 0 4.3s1.864 3.156 1.577 5.02-7.168 13.333-7.168 13.333-4.367.573-5.912-.717-2.979-6.308-4.986-6.882-2.724 3.154-2.724 3.154l-1.29-1s.717-4.158-.143-5.591a12.707 12.707 0 0 0-2.151-2.581l1.147-4.444z" transform="translate(-365.419 -237.294)"/>
                    </g>
                    <path id="Path_2169" d="M347.261 285.358c-2.56 1.149-7.052 1.9-9.767 1.3a22.1 22.1 0 0 1-6.837-2.339 11.092 11.092 0 0 1-4.233-4.738 1.178 1.178 0 0 1-.145-.514c.018-.648.894-.823 1.542-.8 3.663.14 7.516.652 11.152.172a12.528 12.528 0 0 0-3.272-.994c-1.777-.259-.954-1.363-.954-1.363 1-.428 6.07-.192 7.6.4l5.475 2.125.09.67c.693-.01 1.128-.029 1.128-.029s-.027 5.323-1.779 6.11z" class="cls-14" transform="translate(-326.279 -172.967)"/>
                    <path id="Path_2170" d="M393.05 275.326c3.318-4.6-.127-12.943-5.8-13.072-2.018-.047-3.766 0-5.282 1.258-3.753 3.107-8.957 16.444-13.8 23.907-11.173.973-28.347-1.245-28.347-1.245-2.834 4.794-.411 8.34-.411 8.34 32.279 7.549 34.9 4.559 35.865 4.412s17.738-23.548 17.775-23.6z" class="cls-24" transform="translate(-318.844 -181.287)"/>
                </g>
                <g id="Group_2149" transform="translate(207.121 79.029)">
                    <path id="Path_2171" d="M388.6 204.775a6.609 6.609 0 1 0-11.658 4.259l5.05 6.044 5.077-6.044-.016-.014a6.579 6.579 0 0 0 1.547-4.245z" class="cls-16" transform="translate(-375.384 -198.166)"/>
                    <circle id="Ellipse_334" cx="3.491" cy="3.491" r="3.491" fill="#d16565" transform="translate(3.117 3.117)"/>
                </g>
                <g id="Group_2150" transform="translate(164.586 77.469)">
                    <path id="Path_2172" d="M362.2 203.807a6.609 6.609 0 1 0-11.658 4.259l5.05 6.044 5.077-6.044-.018-.015a6.572 6.572 0 0 0 1.549-4.244z" class="cls-16" transform="translate(-348.979 -197.198)"/>
                    <path id="Path_2173" d="M357.9 202.625a3.492 3.492 0 1 1-3.492-3.492 3.492 3.492 0 0 1 3.492 3.492z" class="cls-17" transform="translate(-347.797 -196.016)"/>
                </g>
                <g id="Group_2151" transform="translate(77.02 51.445)">
                    <path id="Path_2174" fill="#fbd15b" d="M395.748 267.312c-.276-23.91-34.293-57.128-63.859-62.357-12.177-2.152-28.366-.3-36.328 20.758l-.941-.272c5.685-27.818 29.118-42.224 49.82-44.162 19.877-1.861 36.7 7.412 44.24 24.273 3.529-12.844 11.352-20.125 21.2-19.543 10.844.64 20.481 10.55 21.935 22.56l-.975.118c-1.4-11.555-10.632-21.085-21.02-21.7-9.78-.575-17.291 6.782-20.55 20.194l-.359 1.472-.573-1.4c-7.069-17.286-23.852-26.861-43.808-25-18.9 1.769-40.124 14.118-47.511 37.786 8.754-16.669 23.611-18.076 35.04-16.052 29.94 5.293 64.389 39.02 64.669 63.311z" transform="translate(-294.62 -181.043)"/>
                </g>
                <g id="Group_2152" transform="translate(70.892 94.427)">
                    <path id="Path_2175" d="M304.033 214.334a6.609 6.609 0 1 0-11.658 4.259l5.05 6.042 5.075-6.035-.016-.015a6.579 6.579 0 0 0 1.549-4.251z" class="cls-16" transform="translate(-290.816 -207.725)"/>
                    <path id="Path_2176" d="M299.734 213.152a3.492 3.492 0 1 1-3.492-3.492 3.492 3.492 0 0 1 3.492 3.492z" class="cls-17" transform="translate(-289.634 -206.543)"/>
                </g>
                <g id="Group_2153" transform="translate(172.03 137.71)">
                    <path id="Path_2177" d="M366.817 241.2a6.609 6.609 0 1 0-11.656 4.259l5.052 6.044 5.076-6.044-.016-.015a6.579 6.579 0 0 0 1.544-4.244z" class="cls-16" transform="translate(-353.6 -234.594)"/>
                    <path id="Path_2178" d="M362.518 240.02a3.492 3.492 0 1 1-3.491-3.491 3.492 3.492 0 0 1 3.491 3.491z" class="cls-17" transform="translate(-352.418 -233.412)"/>
                </g>
            </g>
            <g id="Group_2155" transform="translate(331.919 50.772)">
                <path id="Path_2179" fill="#bee1f4" fill-rule="evenodd" d="M454.881 196.546c0 9.691-6.845 13.594-15.291 8.718s-15.29-16.684-15.29-26.373 6.846-13.594 15.29-8.718 15.291 16.683 15.291 26.373z" transform="translate(-424.3 -168.072)"/>
                <path id="Path_2180" d="M450.357 193.055c0 7.611-5.377 10.677-12.011 6.848s-12.011-13.106-12.011-20.718 5.377-10.679 12.011-6.848 12.011 13.105 12.011 20.718z" class="cls-16" transform="translate(-423.056 -166.474)"/>
                <text id="_" fill="#d16565" font-family="Roboto-Bold, Roboto" font-size="16px" font-weight="700" transform="translate(10.343 24.008)">
                    <tspan x="0" y="0">$</tspan>
                </text>
            </g>
            <path id="Path_2181" d="M458.434 378.9l-62.486-36.077a9.794 9.794 0 0 1-4.9-8.481v-61.528a4.929 4.929 0 0 1 7.392-4.269l62.486 36.077a9.794 9.794 0 0 1 4.9 8.481v61.523a4.929 4.929 0 0 1-7.392 4.274z" class="cls-3" transform="translate(-112.693 -56.33)"/>
            <g id="Group_2156" transform="translate(292.723 242.279)">
                <path id="Path_2182" d="M418.017 328.029l-9.127-5.269v-24.828l9.127 5.269z" class="cls-4" transform="translate(-394.518 -280.25)"/>
                <path id="Path_2183" d="M409.1 326.437l-9.127-5.269v-34.212l9.127 5.269z" class="cls-6" transform="translate(-399.968 -286.956)"/>
                <path id="Path_2184" d="M426.939 342.825l-9.127-5.269V287.3l9.127 5.269z" class="cls-5" transform="translate(-389.068 -286.748)"/>
            </g>
            <path id="Path_2185" d="M354.668 402.66L310 376.868a7 7 0 0 1-3.5-6.063v-43.984a3.523 3.523 0 0 1 5.285-3.051l44.673 25.792a7 7 0 0 1 3.5 6.063v43.983a3.523 3.523 0 0 1-5.29 3.052z" class="cls-3" transform="translate(-164.346 -22.479)"/>
        </g>
    </g>
</svg>
