<svg xmlns="http://www.w3.org/2000/svg" width="20.945" height="21.005" viewBox="0 0 20.945 21.005">
    <defs>
        <style>
            .cls-1{fill:#fff}
        </style>
    </defs>
    <g id="noun_Project_3757250" transform="translate(-2 -2)">
        <path id="Rectangle_1685" d="M0 0H8.052V2.101H0z" class="cls-1" transform="translate(5.501 2)"/>
        <path id="Path_5891" d="M17.4 21.16a5.247 5.247 0 1 1-2.731-9.726 5.216 5.216 0 0 1 2.731.77V5h-3.147v1.75H4.8V5H2v17.854h15.4zM3.75 8.151h11.9v.7H3.75zm0 2.1h7.7v.7h-7.7zm0 2.1H7.6v.7H3.75zm0 2.1h2.8v2.8h-2.8zm0 4.2h2.8v.7h-2.8zm4.2 2.8h-4.2v-.7h4.2z" class="cls-1" transform="translate(0 -1.95)"/>
        <path id="Path_5892" d="M34.919 33.6a.35.35 0 0 0-.5 0l-.248.248-1-1a4.561 4.561 0 1 0-.5.495l1 1-.248.248a.35.35 0 0 0 0 .5l2.97 2.97a.35.35 0 0 0 .5 0l.99-.99a.35.35 0 0 0 0-.5zM32.1 29.883a2.181 2.181 0 0 1-.022.308.26.26 0 0 0 .138.262l.163.09a.263.263 0 0 1 .1.368l-.451.747a.288.288 0 0 1-.385.1l-.165-.091a.3.3 0 0 0-.32.026 2.394 2.394 0 0 1-.525.292.277.277 0 0 0-.183.252v.179a.276.276 0 0 1-.28.269h-.9a.276.276 0 0 1-.28-.269v-.179a.277.277 0 0 0-.183-.252 2.394 2.394 0 0 1-.525-.292.3.3 0 0 0-.32-.026l-.165.091a.288.288 0 0 1-.385-.1l-.451-.747a.263.263 0 0 1 .1-.368l.161-.09a.26.26 0 0 0 .14-.262 2.161 2.161 0 0 1 0-.616.26.26 0 0 0-.14-.262l-.163-.09a.263.263 0 0 1-.1-.368l.452-.747a.288.288 0 0 1 .385-.1l.165.091a.3.3 0 0 0 .32-.026 2.381 2.381 0 0 1 .525-.292.276.276 0 0 0 .183-.252v-.18a.275.275 0 0 1 .28-.269h.9a.275.275 0 0 1 .28.269v.18a.276.276 0 0 0 .183.252 2.38 2.38 0 0 1 .525.292.3.3 0 0 0 .32.026l.165-.091a.288.288 0 0 1 .385.1l.451.747a.263.263 0 0 1-.1.368l-.163.09a.26.26 0 0 0-.138.262 2.182 2.182 0 0 1 .023.308z" class="cls-1" transform="translate(-15.047 -15.149)"/>
        <circle id="Ellipse_446" cx="1.05" cy="1.05" r="1.05" class="cls-1" transform="translate(13.623 13.683)"/>
    </g>
</svg>
