<svg xmlns="http://www.w3.org/2000/svg" width="16.079" height="17.206" viewBox="0 0 16.079 17.206">
    <path fill="#2e75bb" d="M164.863 57.7h-2.7a1.978 1.978 0 0 0-1.982 1.975.454.454 0 0 0 .909 0 1.07 1.07 0 0 1 1.074-1.068h2.7a1.212 1.212 0 0 0 0-2.424h-4.217a7.1 7.1 0 1 0-4.014.933h.01c.163.011.327 0 .493 0s.311-.029.464-.029h7.264a.3.3 0 0 1 0 .606zm-8.933-12.191a1.684 1.684 0 1 1-.5 1.2 1.7 1.7 0 0 1 .5-1.2zm-2.082 6.175a1.694 1.694 0 1 1 1.2-.5 1.694 1.694 0 0 1-1.2.5zm4.494 2.8a1.7 1.7 0 1 1 .5-1.2 1.7 1.7 0 0 1-.5 1.199zm.882-3.281a1.7 1.7 0 0 1 2.4-2.4 1.7 1.7 0 1 1-2.4 2.4z" transform="translate(-149.996 -42.924)"/>
</svg>
