<svg xmlns="http://www.w3.org/2000/svg" width="16.821" height="16.86" viewBox="0 0 16.821 16.86">
    <defs>
        <style>
            .cls-1{fill:#2e75bb}
        </style>
    </defs>
    <g id="Group_3041" transform="translate(-62.613 -329)">
        <circle id="Ellipse_430" cx="5.635" cy="5.635" r="5.635" class="cls-1" transform="translate(65.326 331.795)"/>
        <g id="noun_Instagram_Stories_682475" transform="translate(62.613 329)">
            <g id="Group_3040">
                <g id="Group_3035" transform="translate(4.118 14.776)">
                    <path id="Path_2545" d="M31.24 85.964a8.449 8.449 0 0 1-3.965-.989.582.582 0 0 1 .548-1.026 7.3 7.3 0 0 0 5.075.662.582.582 0 0 1 .264 1.133 8.483 8.483 0 0 1-1.922.22z" class="cls-1" transform="translate(-26.967 -83.88)"/>
                </g>
                <g id="Group_3036" transform="translate(.182 9.705)">
                    <path id="Path_2546" d="M8.775 61.823a.579.579 0 0 1-.4-.159 8.4 8.4 0 0 1-2.4-4.127.582.582 0 1 1 1.131-.274 7.241 7.241 0 0 0 2.065 3.556.582.582 0 0 1-.4 1z" class="cls-1" transform="translate(-5.963 -56.818)"/>
                </g>
                <g id="Group_3037" transform="translate(0 4.539)">
                    <path id="Path_2547" d="M5.572 32.945h-.058a.582.582 0 0 1-.522-.636 8.37 8.37 0 0 1 .742-2.715.582.582 0 1 1 1.055.491 7.2 7.2 0 0 0-.639 2.335.582.582 0 0 1-.578.525z" class="cls-1" transform="translate(-4.99 -29.254)"/>
                </g>
                <g id="Group_3038" transform="translate(2.442 1.965)">
                    <path id="Path_2548" d="M18.6 16.854a.582.582 0 0 1-.449-.951q.078-.1.158-.187a.582.582 0 1 1 .877.764c-.046.053-.092.107-.136.161a.581.581 0 0 1-.45.213z" class="cls-1" transform="translate(-18.019 -15.516)"/>
                </g>
                <g id="Group_3039" transform="translate(7.809)">
                    <path id="Path_2549" d="M51.272 20.78a.582.582 0 0 1-.3-1.081 7.267 7.267 0 0 0-3.726-13.505.582.582 0 0 1 0-1.164A8.431 8.431 0 0 1 51.57 20.7a.577.577 0 0 1-.298.08z" class="cls-1" transform="translate(-46.664 -5.03)"/>
                </g>
                <path id="Polygon_1" fill="#fff" d="M2.424 1.481a1 1 0 0 1 1.728 0L5.7 4.131a1 1 0 0 1-.864 1.5H1.741a1 1 0 0 1-.864-1.5z" transform="rotate(90 3.246 8.859)"/>
            </g>
        </g>
    </g>
</svg>
