<svg xmlns="http://www.w3.org/2000/svg" width="16.85" height="16.08" viewBox="0 0 16.85 16.08">
    <path fill="#2e75bb" d="M0 27.79h16.85V11.71H0zm3.249-1.26h-2v-1.8h2v1.8zm6.184 0H7.424v-1.8h2.012v1.8zm4.175-13.709h2.007v1.8h-2.007zm0 11.916h2v1.791H13.6v-1.793zm-3.142-11.916h2v1.8h-2zm0 11.91h2v1.8h-2.002v-1.8zm-3.052-11.91h2.022v1.8H7.414zm-.3 4.41l2.62 1.89a.73.73 0 0 1 0 1.26l-2.62 1.89c-.482.346-.876.063-.876-.63V17.86c-.003-.689.396-.972.878-.63zm-2.834-4.41h2v1.8h-2zm0 11.91h2v1.8h-2v-1.8zm-3.042-11.91h2.01v1.8h-2.01z" transform="translate(0 -11.71)"/>
</svg>
