<svg xmlns="http://www.w3.org/2000/svg" width="16.704" height="15.272" viewBox="0 0 16.704 15.272">
    <g>
        <path fill="#414141" d="M0 26.982h16.7V11.71H0zm3.221-1.2H1.234v-1.705h1.987v1.705zm6.13 0H7.36v-1.705h1.994v1.713zm4.139-13.017h1.99v1.713h-1.99zm0 11.318h1.986v1.7h-1.989v-1.7zm-3.115-11.318h1.986v1.709h-1.986zm0 11.312h1.986v1.709h-1.988v-1.709zM7.35 12.765h2v1.709h-2zm-.3 4.188l2.6 1.795a.679.679 0 0 1 0 1.2l-2.6 1.795c-.478.329-.869.06-.869-.6v-3.59c0-.653.395-.925.873-.6zm-2.81-4.188h1.982v1.711H4.245zm0 11.312h1.982v1.711H4.245v-1.713zM1.228 12.765h1.993v1.713H1.228z" transform="translate(0 -11.71)"/>
    </g>
</svg>
